<svg width="18" height="17" viewBox="0 0 18 17" fill="none" xmlns="http://www.w3.org/2000/svg">
<path d="M4.16661 0.0333333L14.0833 9.95L15.8499 8.18333L17.0249 9.35833L14.9666 11.4167L17.6166 14.0667C17.9416 14.3917 17.9416 14.9167 17.6166 15.2417L17.0249 15.8333C16.6999 16.1583 16.1749 16.1583 15.8499 15.8333L13.1666 13.1917L11.1333 15.25L9.95828 14.075L11.7249 12.3083L1.80828 2.39167V0.0333333H4.16661ZM12.2416 6.33333L16.1916 2.38333V0.0333333H13.8333L9.88328 3.98333L12.2416 6.33333ZM8.11661 10.5L5.75828 8.10833L3.91661 9.95L2.14994 8.18333L0.974943 9.35833L3.03328 11.4167L0.383276 14.075C0.0582764 14.4 0.0582764 14.925 0.383276 15.25L0.974943 15.8417C1.29994 16.1667 1.82494 16.1667 2.14994 15.8417L4.83328 13.1917L6.86661 15.25L8.04161 14.075L6.27494 12.3083L8.11661 10.5Z" fill="white"/>
</svg>
