<svg width="20" height="20" viewBox="0 0 20 20" fill="none" xmlns="http://www.w3.org/2000/svg">
<path d="M11.825 11.825L4.99996 15L8.17496 8.175L15 5M9.99996 1.66667C8.90561 1.66667 7.82198 1.88221 6.81093 2.301C5.79988 2.71979 4.88122 3.33362 4.1074 4.10744C2.5446 5.67025 1.66663 7.78986 1.66663 10C1.66663 12.2101 2.5446 14.3298 4.1074 15.8926C4.88122 16.6664 5.79988 17.2802 6.81093 17.699C7.82198 18.1178 8.90561 18.3333 9.99996 18.3333C12.2101 18.3333 14.3297 17.4554 15.8925 15.8926C17.4553 14.3298 18.3333 12.2101 18.3333 10C18.3333 8.90565 18.1177 7.82202 17.699 6.81097C17.2802 5.79992 16.6663 4.88126 15.8925 4.10744C15.1187 3.33362 14.2 2.71979 13.189 2.301C12.1779 1.88221 11.0943 1.66667 9.99996 1.66667ZM9.99996 9.08333C9.75684 9.08333 9.52369 9.17991 9.35178 9.35182C9.17987 9.52373 9.08329 9.75688 9.08329 10C9.08329 10.2431 9.17987 10.4763 9.35178 10.6482C9.52369 10.8201 9.75684 10.9167 9.99996 10.9167C10.2431 10.9167 10.4762 10.8201 10.6481 10.6482C10.82 10.4763 10.9166 10.2431 10.9166 10C10.9166 9.75688 10.82 9.52373 10.6481 9.35182C10.4762 9.17991 10.2431 9.08333 9.99996 9.08333Z" fill="white"/>
</svg>
