<svg width="64" height="64" viewBox="0 0 64 64" fill="none" xmlns="http://www.w3.org/2000/svg">
<path d="M32 5.33337C17.2534 5.33337 5.33337 17.2534 5.33337 32C5.33337 46.7467 17.2534 58.6667 32 58.6667C39.0725 58.6667 45.8552 55.8572 50.8562 50.8562C55.8572 45.8552 58.6667 39.0725 58.6667 32C58.6667 17.2534 46.6667 5.33337 32 5.33337ZM18.0267 23.52L20.8534 20.6934L23.68 23.52L26.5067 20.6934L29.3334 23.52L26.5067 26.3467L29.3334 29.1734L26.5067 32L23.68 29.1734L20.8534 32L18.0267 29.1734L20.8534 26.3467L18.0267 23.52ZM18.3734 46.6667C20.5067 41.2267 25.7867 37.3334 32 37.3334C38.2134 37.3334 43.4934 41.2267 45.6267 46.6667H18.3734ZM45.9734 29.1734L43.1467 32L40.32 29.1734L37.4934 32L34.6667 29.1734L37.4934 26.3467L34.6667 23.52L37.4934 20.6934L40.32 23.52L43.1467 20.6934L45.9734 23.52L43.1467 26.3467L45.9734 29.1734Z" fill="#8C8C8C"/>
</svg>
